<svg id="Layer_1" data-name="Layer 1" xmlns="http://www.w3.org/2000/svg" viewBox="0 0 1000 1000"><defs><style>.cls-1{fill:#37c4ee;}.cls-1,.cls-2,.cls-3,.cls-4{fill-rule:evenodd;}.cls-2{fill:#2db67d;}.cls-3{fill:#eab12c;}.cls-4{fill:#df205b;}</style></defs><path class="cls-1" d="M405.05,143.29a71.33,71.33,0,0,0,0,142.65h71.21V214.65a71.32,71.32,0,0,0-71.24-71.36h0m0,190.24H215.21a71.35,71.35,0,0,0,0,142.69H405.05a71.35,71.35,0,0,0,0-142.69Z"/><path class="cls-2" d="M856,404.86a71.21,71.21,0,1,0-142.42,0v71.36h71.21A71.28,71.28,0,0,0,856,404.86Zm-189.87,0V214.62a71.2,71.2,0,1,0-142.39,0V404.86a71.2,71.2,0,1,0,142.39,0Z"/><path class="cls-3" d="M594.92,856.71a71.33,71.33,0,0,0,0-142.65H523.71v71.32A71.31,71.31,0,0,0,594.92,856.71Zm0-190.27H784.79a71.35,71.35,0,0,0,0-142.69H595a71.35,71.35,0,0,0,0,142.69Z"/><path class="cls-4" d="M144,595.11a71.21,71.21,0,1,0,142.42,0V523.78H215.21A71.27,71.27,0,0,0,144,595.11Zm189.87,0V785.35a71.2,71.2,0,1,0,142.39,0V595.17a71.2,71.2,0,1,0-142.39-.06h0"/></svg>